<svg width="76" height="14" viewBox="0 0 76 14" fill="none" xmlns="http://www.w3.org/2000/svg">
<path d="M65.3677 13.6295V0.344727H75.7461V3.52701H69.5402V5.29181H74.7935V8.34803H69.5402V10.4035H76V13.6295H65.3677Z" fill="#24388D"/>
<path d="M52.7899 13.6295V0.344727H63.1683V3.52701H56.9573V5.29181H62.2056V8.34803H56.9573V10.4035H63.4197V13.6295H52.7899Z" fill="#24388D"/>
<path d="M41.3883 13.6295V0.344727H51.2063V3.68908H45.5533V5.74715H50.0526V8.95774H45.5533V13.6321H41.3883V13.6295Z" fill="#24388D"/>
<path d="M29.9768 13.6295V0.344727H39.7973V3.68908H34.1493V5.74715H38.641V8.95774H34.1493V13.6321H29.9768V13.6295Z" fill="#24388D"/>
<path d="M14.5888 6.99743C14.5888 4.83646 15.1871 3.12312 16.3961 1.87541C17.6101 0.622565 19.254 0 21.3402 0C23.4215 0 25.0628 0.622565 26.2693 1.87541C27.4783 3.12312 28.0741 4.83646 28.0741 6.99743C28.0741 9.1584 27.4783 10.8666 26.2693 12.1194C25.0628 13.3723 23.4215 13.9974 21.3402 13.9974C19.254 13.9974 17.6101 13.3723 16.3961 12.1194C15.1871 10.8692 14.5888 9.1584 14.5888 6.99743ZM18.7965 6.99743C18.7965 8.25285 19.0001 9.17898 19.4098 9.7681C19.8221 10.3572 20.4655 10.6505 21.3377 10.6505C22.2099 10.6505 22.8509 10.3572 23.2556 9.77067C23.6577 9.1867 23.8613 8.26057 23.8613 6.99743C23.8613 5.73172 23.6603 4.80301 23.2556 4.21389C22.8509 3.63506 22.2099 3.33921 21.3377 3.33921C20.4655 3.33921 19.8195 3.63506 19.4098 4.22418C19.0001 4.8133 18.7965 5.73686 18.7965 6.99743Z" fill="#24388D"/>
<path d="M9.44358 8.48192H13.3899C13.2768 10.2313 12.6735 11.5947 11.5826 12.5569C10.4917 13.519 9.02633 14.0001 7.1663 14.0001C5.08507 14.0001 3.45377 13.3827 2.25983 12.135C1.06338 10.8847 0.467674 9.17395 0.467674 7.00011C0.467674 4.83914 1.06339 3.1258 2.24224 1.8781C3.41859 0.625251 5.03228 0.00268555 7.06826 0.00268555C8.9484 0.00268555 10.4264 0.465751 11.5072 1.39188C12.5855 2.32316 13.1913 3.65318 13.3195 5.38196H9.32292C9.26511 4.70022 9.04895 4.18571 8.67443 3.83583C8.30996 3.49368 7.78211 3.32389 7.11602 3.32389C6.30414 3.32389 5.68832 3.63003 5.27861 4.23716C4.86891 4.84686 4.67034 5.77042 4.67034 7.00269C4.67034 8.21437 4.89153 9.13021 5.32135 9.74763C5.75871 10.3676 6.39715 10.6789 7.23416 10.6789C7.88517 10.6789 8.39291 10.4911 8.77497 10.1052C9.15452 9.72705 9.38074 9.18681 9.44358 8.48192Z" fill="#24388D"/>
</svg>